<?xml version="1.0" encoding="UTF-8"?>
<!DOCTYPE svg PUBLIC "-//W3C//DTD SVG 1.1//EN" "http://www.w3.org/Graphics/SVG/1.1/DTD/svg11.dtd">
<svg version="1.1" xmlns="http://www.w3.org/2000/svg" xmlns:xlink="http://www.w3.org/1999/xlink" x="0" y="0" width="110.261" height="109.351" viewBox="0, 0, 110.261, 109.351">
  <defs>
    <clipPath id="Clip_1">
      <path d="M0.009,109.279 L110.252,109.279 L110.252,0.072 L0.009,0.072 z"/>
    </clipPath>
  </defs>
  <g id="Layer_1">
    <g>
      <path d="M72.156,4.128 C82.599,7.582 91.594,13.767 98.343,22.363 C106.215,32.644 110.552,45.416 109.588,59.472 C108.383,75.861 99.708,90.078 87.176,99.073 C82.518,102.286 77.297,104.778 71.835,106.545 C63.64,109.115 53.681,109.598 45.005,107.75 C31.912,105.098 20.586,97.788 12.634,87.507 C3.877,76.261 -0.379,61.078 2.272,45.576 C5.806,23.647 23.639,6.297 45.327,2.441 C54.082,0.755 64.043,1.397 72.156,4.128 z" fill-opacity="0" stroke="#1B1A19" stroke-width="0.219"/>
      <path d="M61.775,1.941 C48.522,0.013 35.75,3.547 25.629,9.974 C19.444,13.91 14.624,18.649 10.448,24.593 C7.957,28.449 5.628,32.706 4.262,37.284 C2.334,42.666 1.611,48.531 1.369,54.636 C1.691,70.541 8.278,84.274 19.203,94.156 C26.914,100.903 36.311,105.561 46.916,107.33 C55.67,108.776 65.23,107.811 73.102,105.081 C88.846,99.619 101.537,86.767 106.436,70.781 C110.212,59.375 109.41,44.996 104.67,34.313 C100.333,23.79 92.38,14.954 82.742,9.17 C76.396,5.475 69.405,2.905 61.775,1.941 M71.656,3.628 C82.098,7.082 91.094,13.267 97.843,21.862 C105.715,32.144 110.052,44.915 109.088,58.972 C107.883,75.36 99.208,89.577 86.676,98.573 C82.018,101.786 76.797,104.278 71.335,106.045 C63.141,108.615 53.181,109.097 44.506,107.249 C31.412,104.598 20.086,97.288 12.134,87.007 C3.378,75.761 -0.879,60.578 1.772,45.076 C5.306,23.147 23.139,5.796 44.827,1.941 C53.583,0.254 63.543,0.897 71.656,3.628" fill="#1A1919"/>
      <path d="M62.275,2.441 C49.022,0.513 36.25,4.047 26.129,10.474 C19.944,14.41 15.124,19.149 10.948,25.093 C8.457,28.949 6.128,33.206 4.762,37.784 C2.834,43.166 2.111,49.031 1.869,55.136 C2.191,71.041 8.778,84.774 19.703,94.656 C27.414,101.403 36.811,106.061 47.416,107.83 C56.17,109.276 65.73,108.311 73.602,105.581 C89.346,100.119 102.037,87.267 106.936,71.281 C110.712,59.875 109.91,45.496 105.17,34.813 C100.833,24.29 92.88,15.454 83.242,9.67 C76.896,5.975 69.905,3.405 62.275,2.441 z M72.156,4.128 C82.598,7.582 91.594,13.767 98.343,22.362 C106.215,32.644 110.552,45.415 109.588,59.472 C108.383,75.86 99.708,90.077 87.176,99.073 C82.518,102.286 77.297,104.778 71.835,106.545 C63.641,109.115 53.681,109.597 45.006,107.749 C31.912,105.098 20.586,97.788 12.634,87.507 C3.878,76.261 -0.379,61.078 2.272,45.576 C5.806,23.647 23.639,6.296 45.327,2.441 C54.083,0.754 64.043,1.397 72.156,4.128 z" fill-opacity="0" stroke="#1B1A19" stroke-width="0.437"/>
    </g>
    <g clip-path="url(#Clip_1)">
      <path d="M72.976,7.504 C85.108,11.931 95.272,21.111 100.844,32.83 L102.074,35.371 C102.074,35.535 101.994,35.618 101.911,35.781 L101.747,35.618 C97.731,25.864 90.19,17.422 81.501,12.177 C69.535,4.471 51.994,2.258 37.977,7.423 C27.65,11.029 19.372,17.586 13.224,26.356 C7.978,34.143 4.699,43.486 4.617,53.813 C4.699,67.75 10.027,80.371 18.962,89.387 C30.518,101.518 49.125,107.666 67.239,103.403 C83.058,99.632 96.501,88.157 102.239,72.993 C106.009,63.813 106.665,51.764 103.878,41.929 C103.387,39.879 102.567,37.913 101.911,35.946 C101.911,35.781 102.158,35.946 102.239,35.946 C105.518,43.978 106.911,53.65 105.436,62.832 L104.37,67.913 C100.599,82.338 90.19,94.223 76.747,100.536 C70.272,103.485 62.978,105.207 55.108,105.126 C36.748,104.96 21.339,95.534 12.076,81.437 C9.535,77.175 7.404,72.83 6.01,67.994 C5.355,65.289 4.863,62.584 4.372,59.797 C3.552,49.962 5.191,40.208 9.371,32.093 C12.404,25.864 16.83,20.373 22.076,15.947 C33.879,6.111 50.682,1.684 66.829,5.619 C68.961,6.028 70.927,6.685 72.976,7.504" fill="#1A1919"/>
      <path d="M56.338,8.487 C56.173,8.733 56.01,9.062 56.092,9.389 C56.173,9.798 56.42,10.29 56.912,10.208 C57.403,10.373 57.813,10.126 57.977,9.717 C57.977,9.389 58.141,8.98 57.895,8.733 C57.485,8.405 56.83,8.16 56.338,8.487 M58.469,7.668 C60.518,7.831 62.485,8.077 64.37,8.487 C64.535,8.569 64.779,8.651 64.616,8.815 L62.65,9.634 C58.386,11.848 54.207,13.98 50.518,16.848 C48.551,18.569 46.174,19.88 44.289,21.765 C43.715,22.257 43.06,21.602 42.322,21.683 C40.765,21.602 39.207,21.356 37.568,21.274 C36.256,21.356 35.191,20.864 33.961,20.946 C32.813,21.11 31.83,20.7 30.765,20.782 L27.896,20.618 C27.404,20.29 27.814,19.717 27.977,19.389 C29.535,16.684 32.404,14.798 34.945,12.996 C36.174,12.421 37.239,11.521 38.634,11.356 C38.879,11.684 38.879,12.093 38.962,12.421 C38.879,12.914 38.305,12.996 38.06,13.405 C37.404,13.896 36.83,14.389 36.256,14.88 L36.338,15.046 C37.896,14.962 39.289,14.224 40.846,14.389 C41.01,14.634 40.765,14.798 40.6,14.88 C39.125,15.618 37.649,16.11 36.174,17.012 C37.322,17.012 38.387,16.684 39.535,16.601 L41.748,16.521 C41.83,16.521 41.83,16.684 41.748,16.766 C39.862,17.421 38.06,18.323 36.42,19.224 C36.174,19.307 36.01,19.553 35.846,19.717 L36.01,19.88 L43.469,20.618 L43.961,20.373 C47.322,17.667 50.518,14.716 53.879,12.176 C54.043,11.848 54.453,11.684 54.534,11.356 L54.043,11.11 C52.239,10.7 50.354,10.373 48.551,9.88 C46.584,9.471 44.371,9.552 42.568,8.733 C42.404,8.569 42.486,8.487 42.568,8.405 L43.715,8.16 L52.077,7.503 C53.469,7.423 54.78,7.34 56.256,7.503" fill="#1A1919"/>
      <path d="M57.485,9.061 C57.485,9.307 57.321,9.471 57.076,9.471 C56.912,9.389 56.748,9.307 56.748,9.142 C56.83,8.979 56.83,8.733 56.994,8.733 C57.239,8.652 57.485,8.816 57.485,9.061" fill="#1A1919"/>
      <path d="M19.617,22.913 C19.372,23.159 19.043,23.487 19.207,23.979 C19.372,24.225 19.536,24.47 19.863,24.553 C20.436,24.635 21.01,24.307 21.174,23.897 C21.338,23.569 21.174,23.241 21.01,22.995 C20.682,22.749 20.027,22.585 19.617,22.913 M25.519,16.357 C25.027,17.586 24.534,18.815 24.043,20.044 C23.224,22.585 22.732,25.29 22.158,27.996 C22.158,29.061 21.912,30.044 21.748,31.11 C21.666,34.388 21.585,37.832 21.912,41.028 L22.322,45.618 L21.994,46.11 C18.47,49.388 15.191,53.24 11.83,56.438 C11.666,56.601 11.503,56.519 11.42,56.438 C9.699,54.061 9.289,51.109 9.125,48.077 L9.453,45.126 C10.027,44.798 10.929,44.88 11.42,45.208 L11.584,45.454 C11.503,47.585 10.847,49.634 11.175,51.765 C11.748,51.437 11.748,50.618 11.994,50.044 C12.404,48.65 12.895,47.339 13.47,46.028 C13.633,45.945 13.797,45.945 13.797,46.11 C13.552,47.831 13.388,49.388 13.552,51.273 C14.371,49.962 14.946,48.486 15.764,47.093 C16.092,46.602 16.256,45.864 16.749,45.454 L16.912,45.536 C16.42,47.257 15.847,48.978 15.601,50.864 C15.601,50.945 15.601,51.109 15.764,51.027 C17.486,49.224 19.043,47.339 20.682,45.454 C20.682,42.339 20.436,39.142 20.601,35.864 C20.355,33.323 20.519,30.7 20.519,28.159 L20.436,28.077 C19.453,28.569 18.47,29.389 17.649,30.126 C15.436,31.274 13.716,33.241 11.83,34.716 L11.748,34.634 C12.322,32.503 13.552,30.7 14.454,28.651 C16.174,25.045 19.125,22.094 21.748,19.225 C22.732,17.995 24.043,17.094 25.272,16.192" fill="#1A1919"/>
      <path d="M20.682,23.733 C20.682,23.897 20.601,24.06 20.436,24.224 C20.108,24.308 20.026,23.98 19.864,23.815 C19.864,23.57 20.026,23.323 20.273,23.323 C20.518,23.242 20.682,23.488 20.682,23.733" fill="#1A1919"/>
      <path d="M43.551,27.258 C43.223,27.339 42.896,27.503 42.731,27.832 C42.731,28.241 42.568,28.815 42.896,29.142 C43.305,29.307 43.798,29.142 44.125,28.979 C44.37,28.734 44.616,28.323 44.535,27.914 C44.37,27.586 43.961,27.258 43.551,27.258 M37.158,24.471 C40.026,24.963 43.059,24.963 45.764,25.701 L45.682,25.701 C46.502,26.028 47.649,26.028 48.551,26.438 C49.125,26.684 49.864,26.684 50.436,26.849 L52.896,27.503 C53.059,27.586 53.223,27.749 53.059,27.914 C50.273,28.323 47.403,28.487 44.864,29.553 C42.321,30.7 39.781,31.848 37.649,33.816 C37.486,33.816 37.403,33.978 37.239,33.816 C37.567,32.503 38.469,31.355 38.961,30.126 C39.699,28.897 40.355,27.586 40.927,26.273 L40.6,25.946 L38.469,25.782 L38.551,25.782 C38.224,25.537 37.567,25.782 37.158,25.619 C35.109,25.373 33.059,25.208 30.928,25.208 L27.814,25.29 L27.568,25.619 C27.24,27.996 26.421,30.208 26.339,32.667 C26.666,32.83 26.83,32.339 27.158,32.176 L29.042,30.455 L29.125,30.455 L29.042,31.11 C28.633,32.012 28.141,32.83 27.814,33.896 C28.059,34.06 28.223,33.733 28.551,33.651 C29.207,33.078 29.78,32.339 30.518,32.012 C30.764,32.094 30.601,32.339 30.518,32.503 C29.535,34.144 28.715,35.864 28.059,37.75 C28.223,37.996 28.387,37.667 28.551,37.667 C29.535,36.601 30.518,35.617 31.502,34.389 C31.83,34.305 31.994,34.551 32.157,34.799 L32.649,36.355 C31.584,37.667 30.026,38.814 28.798,39.962 C27.977,40.783 26.994,41.519 26.092,42.421 C25.436,42.503 25.682,41.601 25.519,41.192 C25.109,38.651 24.617,36.028 25.027,33.323 L25.355,30.044 C25.764,28.077 25.848,26.028 26.502,24.143 C26.748,23.897 27.158,24.225 27.568,23.979 C30.682,23.897 34.043,24.225 37.158,24.471" fill="#1A1919"/>
      <path d="M44.126,28.16 C44.206,28.405 44.044,28.569 43.798,28.651 C43.634,28.814 43.306,28.651 43.224,28.405 C43.14,28.16 43.306,27.831 43.552,27.749 C43.798,27.749 44.126,27.914 44.126,28.16" fill="#1A1919"/>
      <path d="M93.468,28.979 C93.224,29.225 93.224,29.553 93.224,29.881 C93.386,30.372 93.877,30.536 94.288,30.7 C94.617,30.617 94.781,30.372 94.945,30.044 C94.863,29.799 94.781,29.471 94.534,29.389 L94.534,29.717 C94.452,29.962 94.288,30.126 94.043,30.126 C93.877,29.962 93.633,29.881 93.715,29.553 C93.715,29.225 94.125,29.225 94.288,29.142 C94.206,28.734 93.715,28.815 93.468,28.979 M75.6,14.471 C77.24,15.126 79.124,15.7 80.354,16.93 L80.272,17.094 C78.879,17.012 77.649,16.521 76.256,16.521 L76.093,16.602 C77.158,17.995 78.633,18.815 79.781,20.044 L79.781,20.372 C79.124,20.044 78.55,19.635 77.895,19.307 C76.913,18.815 76.009,18.078 74.779,18.078 L74.863,18.405 L77.568,21.275 C77.649,21.93 76.747,21.602 76.338,21.848 C75.929,21.93 75.272,22.094 75.027,21.602 C74.37,20.291 73.306,19.225 72.404,18.078 L72.24,18.078 C72.404,19.061 73.142,19.799 73.552,20.782 C74.288,22.504 75.6,24.061 76.256,25.864 C77.322,26.684 78.633,26.766 79.863,27.258 C83.715,27.996 87.322,29.553 91.174,30.372 C91.418,29.881 91.092,29.389 91.009,28.897 C90.108,26.028 89.125,23.323 87.813,20.618 C87.813,20.291 87.24,19.963 87.567,19.635 L87.895,19.799 C90.765,22.585 93.386,25.455 95.272,28.815 L96.092,30.126 C96.831,31.192 97.24,32.75 98.059,33.815 C98.14,34.061 98.468,34.224 98.306,34.551 C97.486,34.471 96.665,34.144 95.927,33.815 C93.55,32.831 91.092,32.257 88.715,31.356 C87.484,31.11 86.5,30.455 85.354,30.126 C84.534,29.962 83.715,29.799 83.059,29.471 C81.338,28.979 79.617,28.405 77.895,27.832 C76.831,27.749 75.845,27.339 74.945,26.93 C74.125,25.373 73.715,23.651 72.813,22.094 C71.01,18.979 69.453,15.372 67.813,12.177 C67.813,11.848 68.305,11.931 68.551,12.094 L72.731,13.159" fill="#1A1919"/>
      <path d="M65.436,32.339 C57.485,28.405 46.42,29.798 39.781,35.208 C36.83,37.585 34.535,40.453 32.813,43.732 C29.78,49.552 29.535,57.584 32.076,63.733 C35.519,72.174 43.305,78.159 52.731,79.224 C63.387,80.126 72.731,74.797 77.24,66.027 C80.6,60.043 80.847,51.109 77.813,44.798 C75.272,39.306 70.927,34.798 65.436,32.339 M77.977,44.06 C78.386,44.962 78.961,45.864 79.043,46.929 L79.206,47.092 C81.009,52.257 80.847,58.978 78.715,63.896 C75.518,71.929 68.961,77.256 60.6,79.388 C50.354,81.437 40.437,77.012 34.863,69.469 C29.945,63.24 28.388,53.24 31.584,45.454 C33.141,41.519 35.764,37.913 38.961,35.208 C42.486,32.339 46.994,30.29 51.83,29.716 C63.387,28.324 73.386,34.634 77.977,44.06" fill="#1A1919"/>
      <path d="M71.091,30.29 C70.764,30.209 70.517,30.536 70.273,30.782 C70.107,31.11 70.273,31.438 70.436,31.683 C70.681,32.011 71.173,32.094 71.584,32.011 C71.993,31.765 71.911,31.11 71.83,30.618 C71.666,30.372 71.42,30.209 71.091,30.29 M64.453,14.553 C65.189,15.7 65.928,17.094 66.748,18.077 C68.058,20.454 69.698,22.421 70.517,24.963 C71.42,27.093 72.404,29.061 73.305,31.274 L74.534,35.454 C74.534,35.536 74.534,35.782 74.371,35.7 C72.404,33.487 69.698,32.176 67.403,30.454 C66.255,29.962 65.026,29.471 63.96,28.815 L64.043,28.651 C66.337,28.405 68.551,28.733 70.764,28.897 C71.173,28.405 70.681,28.077 70.6,27.667 C69.781,26.192 69.043,24.717 68.141,23.323 C66.666,20.7 65.108,18.159 63.305,15.619 C62.814,15.126 62.239,15.619 61.748,15.782 C59.451,17.012 56.83,17.586 54.78,19.307 C54.37,19.553 53.96,19.717 53.715,20.044 L53.796,20.209 C55.928,19.963 57.976,19.553 60.026,19.307 C60.271,19.553 59.944,19.635 59.861,19.717 C58.305,20.291 56.583,20.618 55.108,21.356 C55.026,21.438 54.943,21.52 55.026,21.602 C56.255,22.012 57.649,21.93 58.961,22.257 C59.041,22.34 59.124,22.504 59.041,22.667 C57.403,22.995 55.6,22.995 54.042,23.405 L54.124,23.57 C55.682,24.389 57.239,24.963 58.88,25.536 C58.961,25.619 58.961,25.782 58.88,25.864 C57.567,26.027 56.666,25.619 55.353,25.536 C52.977,25.455 51.092,24.307 49.043,23.57 C48.633,23.242 48.059,23.242 47.896,22.749 L47.977,22.421 C50.108,20.372 52.649,19.061 55.026,17.503 C57.731,16.11 60.599,14.881 63.469,13.897 C63.96,13.815 64.289,14.225 64.453,14.553" fill="#1A1919"/>
      <path d="M71.42,30.782 C71.584,31.109 71.337,31.437 71.01,31.519 C70.846,31.519 70.681,31.355 70.601,31.191 C70.601,30.946 70.764,30.782 70.846,30.617 C71.092,30.617 71.255,30.7 71.42,30.782" fill="#1A1919"/>
      <path d="M62.358,34.932 C56.302,32.628 48.457,33.567 43.425,37.064 C36.689,41.412 32.596,49.685 34.216,58.383 C35.751,66.483 41.891,72.878 49.651,75.012 C58.349,77.314 67.389,73.903 72.249,67.251 C76.428,61.964 77.537,53.778 74.977,47.296 C72.506,41.498 68.241,37.149 62.358,34.932 M74.977,46.017 C77.195,50.623 77.452,56.933 75.661,61.878 C72.591,70.237 65.001,76.119 55.45,76.289 C46.325,76.376 38.736,70.919 35.239,63.244 C33.363,59.064 32.682,53.437 34.131,48.832 C36.433,41.157 42.829,35.101 50.931,33.567 C53.83,32.969 56.985,33.055 59.884,33.737 C66.536,35.187 72.08,39.792 74.977,46.017" fill="#1A1919"/>
      <path d="M62.858,35.432 C56.802,33.128 48.957,34.067 43.925,37.564 C37.189,41.912 33.096,50.185 34.716,58.883 C36.251,66.983 42.391,73.378 50.151,75.512 C58.849,77.814 67.889,74.403 72.749,67.751 C76.928,62.464 78.037,54.278 75.477,47.796 C73.006,41.998 68.741,37.649 62.858,35.432 z M75.477,46.517 C77.695,51.123 77.952,57.433 76.161,62.378 C73.091,70.737 65.501,76.619 55.95,76.789 C46.825,76.876 39.236,71.419 35.739,63.744 C33.863,59.564 33.182,53.937 34.631,49.332 C36.933,41.657 43.329,35.601 51.431,34.067 C54.33,33.469 57.485,33.555 60.384,34.237 C67.036,35.687 72.58,40.292 75.477,46.517 z" fill-opacity="0" stroke="#1B1A19" stroke-width="0.455"/>
      <path d="M26.748,48.158 C26.585,48.241 26.338,48.158 26.257,48.323 C26.01,48.651 26.093,49.142 26.175,49.551 C26.421,49.799 26.748,49.962 27.158,49.88 C27.404,49.633 27.733,49.306 27.65,48.897 C27.486,48.486 27.24,47.995 26.748,48.158 M30.765,42.422 C29.043,44.962 28.716,48.323 28.223,51.52 C28.223,53.241 27.733,54.799 27.814,56.601 L27.733,56.519 L26.995,54.881 C26.421,52.996 25.847,51.026 25.109,49.224 C24.781,48.897 24.535,49.389 24.289,49.551 C21.339,52.338 18.225,55.536 16.011,58.897 C16.093,59.387 16.502,59.797 16.912,60.125 C18.306,61.766 19.617,62.914 21.256,64.061 C21.421,64.061 21.503,63.814 21.503,63.567 C21.503,62.503 21.256,61.438 21.339,60.454 C21.749,60.454 21.666,61.028 21.912,61.272 C22.322,62.176 22.568,62.995 23.06,63.814 L23.224,63.733 C23.388,62.667 23.142,61.683 23.224,60.617 C23.306,60.372 23.552,60.454 23.634,60.617 C24.044,61.517 24.372,62.585 24.945,63.486 L25.027,63.486 C25.109,62.585 24.945,61.601 24.863,60.617 C24.945,60.207 25.437,60.29 25.765,60.372 C26.175,60.372 26.503,60.535 26.667,60.863 C27.323,63.323 27.24,66.11 27.323,68.65 C27.24,68.896 27.158,69.142 26.912,69.223 C26.175,69.061 25.601,68.485 24.863,68.158 C21.011,65.864 17.076,63.158 13.88,59.88 C13.633,59.553 13.961,59.225 14.126,58.897 C15.765,57.011 17.568,55.045 19.208,53.241 C20.109,52.422 20.847,51.11 21.749,50.372 C23.797,48.567 25.437,46.848 27.486,45.045 C28.47,44.142 29.371,42.831 30.437,42.012 L30.765,42.094" fill="#1A1919"/>
      <path d="M27.323,48.978 C27.405,49.224 27.158,49.47 26.912,49.552 C26.748,49.634 26.421,49.47 26.339,49.306 C26.256,48.978 26.585,48.814 26.748,48.65 C27.076,48.568 27.24,48.732 27.323,48.978" fill="#1A1919"/>
      <path d="M82.895,50.453 C82.567,50.617 82.322,51.028 82.402,51.519 C82.485,51.928 82.895,52.093 83.223,52.337 C83.55,52.421 83.96,52.421 84.124,52.093 C84.451,51.764 84.451,51.273 84.288,50.864 C84.041,50.453 83.468,50.373 82.895,50.453 M85.518,34.06 C87.894,34.962 90.599,35.535 92.731,36.766 C93.223,37.093 92.814,37.584 92.731,37.912 C91.501,40.7 90.19,43.241 88.797,45.946 C86.993,49.142 85.026,52.503 82.812,55.453 L82.649,55.371 L82.485,54.307 C82.075,51.355 81.338,48.568 80.6,45.782 L79.943,43.814 L80.026,43.568 C80.517,43.732 80.437,44.389 80.763,44.633 C81.992,46.191 82.812,47.83 83.96,49.389 L84.78,50.453 L84.943,50.453 C87.239,47.01 89.289,43.323 90.846,39.471 C91.008,38.814 91.337,38.241 91.337,37.584 C88.96,36.355 86.5,35.208 83.96,34.471 L83.305,34.471 C83.55,35.782 84.451,36.683 85.026,37.832 L84.943,38.159 L84.617,37.996 C83.878,37.257 83.058,36.355 82.157,35.782 L82.075,35.946 C82.485,36.766 83.058,37.503 83.387,38.323 C83.387,38.487 83.223,38.568 83.058,38.487 C81.992,37.503 81.092,36.601 80.108,35.617 C80.026,35.617 79.862,35.535 79.862,35.7 C80.437,36.846 81.01,37.912 81.665,38.978 C81.83,39.141 81.747,39.389 81.665,39.634 C81.173,39.798 80.682,40.044 80.108,39.88 C78.633,37.667 77.813,34.962 76.912,32.339 C76.912,32.175 76.912,31.93 77.157,31.93 C80.108,32.257 82.649,33.405 85.518,34.06" fill="#1A1919"/>
      <path d="M83.632,51.273 C83.55,51.52 83.305,51.52 83.058,51.437 C82.977,51.356 82.977,51.192 83.058,51.027 C83.223,50.864 83.632,51.027 83.632,51.273" fill="#1A1919"/>
      <path d="M9.781,63.65 C9.535,63.65 9.453,63.976 9.289,64.224 C9.125,64.635 9.453,65.126 9.699,65.373 C10.027,65.537 10.601,65.617 10.847,65.289 C11.011,64.88 11.011,64.387 10.847,63.976 C10.601,63.65 10.191,63.567 9.781,63.65 M12.404,62.337 L13.142,63.076 C15.191,64.714 17.158,66.519 19.372,67.912 C21.256,69.551 23.47,70.864 25.519,72.339 C26.093,72.83 26.994,72.994 27.322,73.733 C27.896,77.91 28.879,81.846 29.371,86.108 L29.945,88.814 C29.863,88.978 29.78,89.225 29.535,89.142 C28.305,88.978 27.322,88.487 26.257,88.157 C23.141,86.601 20.19,84.715 17.731,82.339 C17.486,82.092 17.403,81.6 17.649,81.273 C18.06,80.944 18.387,80.208 19.043,80.453 C20.518,82.01 21.912,83.896 23.633,85.125 L23.633,84.878 C22.814,83.158 21.912,81.6 21.174,79.796 L21.42,79.796 C22.322,81.028 23.552,82.175 24.617,83.239 C24.781,83.239 24.862,83.321 24.862,83.158 C24.534,81.437 24.043,79.796 23.633,78.158 C23.633,78.076 23.796,78.076 23.879,78.076 C24.945,79.88 26.093,81.846 27.24,83.65 C27.485,83.814 27.65,84.387 28.059,84.223 L27.977,83.405 C27.322,80.208 26.666,77.012 25.764,73.978 C24.043,72.421 21.585,71.192 19.699,69.633 C17.568,67.75 15.436,66.437 13.223,64.796 C12.978,64.714 12.895,65.044 12.895,65.205 C12.895,66.764 13.142,68.323 13.059,69.96 L13.223,76.355 C12.895,76.437 12.732,75.946 12.568,75.7 C11.011,72.667 9.617,69.551 8.962,66.11 L8.47,64.387 L7.486,58.241 L7.568,57.667 L7.732,57.667" fill="#1A1919"/>
      <path d="M10.519,64.387 C10.683,64.635 10.519,64.962 10.273,65.044 C9.946,65.126 9.617,65.126 9.535,64.796 C9.535,64.551 9.617,64.305 9.946,64.142 C10.192,64.06 10.355,64.224 10.519,64.387" fill="#1A1919"/>
      <path d="M98.059,69.961 C97.814,70.044 97.65,70.29 97.567,70.535 C97.404,70.945 97.486,71.354 97.731,71.682 C97.975,71.929 98.55,72.093 98.879,71.764 C99.125,71.437 99.534,70.945 99.206,70.453 C98.961,70.044 98.55,69.88 98.059,69.961 M98.306,41.601 C99.206,43.322 99.699,45.372 100.191,47.339 C100.6,48.897 100.6,50.618 100.764,52.258 C100.764,52.421 100.682,52.667 100.436,52.585 C99.781,52.338 99.043,52.174 98.716,51.52 C98.797,49.471 98.716,47.421 98.468,45.454 C98.386,45.208 98.306,45.044 98.141,44.88 L97.975,45.208 L97.567,48.568 C97.321,49.552 97.404,50.537 97.157,51.437 L96.993,51.437 C96.747,49.552 96.747,47.585 96.174,45.864 C95.927,46.192 96.009,46.683 96.009,47.175 L96.174,48.814 L96.009,52.421 C95.927,52.503 95.927,52.667 95.846,52.585 L95.6,52.338 L95.191,50.126 L94.207,46.848 L93.961,46.683 C92.814,47.667 92.404,49.143 91.502,50.372 L90.927,51.847 C91.584,54.471 92.649,56.847 93.386,59.387 C94.288,62.175 95.107,64.879 95.927,67.749 C96.174,68.075 96.092,68.65 96.42,69.061 C96.993,68.978 97.075,68.24 97.486,67.913 C99.699,64.715 101.5,61.109 102.567,57.093 C102.65,56.847 102.567,56.355 102.893,56.355 L103.059,56.847 C102.893,59.225 102.893,61.765 102.322,64.06 C101.993,65.536 101.83,67.092 101.092,68.485 C100.272,71.191 99.125,73.813 97.814,76.19 C97.731,76.272 97.404,76.272 97.404,76.11 C96.336,71.602 94.698,67.503 93.55,63.077 C92.322,59.552 91.092,55.864 89.699,52.338 C89.29,51.929 89.452,51.273 89.78,50.864 C91.748,47.011 93.797,43.159 95.927,39.388 C96.092,39.142 96.42,39.47 96.584,39.47" fill="#1A1919"/>
      <path d="M98.796,70.864 C98.796,71.191 98.633,71.354 98.385,71.519 C98.223,71.437 97.975,71.354 98.058,71.109 C98.141,70.864 98.141,70.617 98.385,70.535 C98.551,70.535 98.796,70.617 98.796,70.864" fill="#1A1919"/>
      <path d="M32.896,71.682 C32.567,71.846 32.567,72.339 32.731,72.667 C32.896,73.076 33.305,73.403 33.88,73.24 C34.126,73.076 34.371,72.747 34.207,72.42 C34.042,72.01 33.469,71.436 32.896,71.682 M31.421,67.175 C32.649,68.895 33.715,70.37 35.192,71.846 C36.421,73.485 37.731,74.879 39.289,76.272 L39.207,76.518 C37.239,76.026 35.273,75.452 33.305,74.879 C33.06,74.879 32.567,74.716 32.485,75.041 C32.649,78.159 33.06,81.19 33.469,84.222 C33.798,85.288 33.96,86.436 34.207,87.421 L34.453,87.666 C36.667,87.585 38.715,87.421 40.764,87.175 C41.748,86.764 43.06,86.928 43.88,86.355 C43.06,85.698 41.994,85.288 41.01,84.878 L41.01,84.715 C41.83,84.633 42.651,84.797 43.551,84.878 L43.551,84.797 C43.06,84.468 42.485,84.059 41.83,83.813 C41.83,83.732 41.748,83.568 41.83,83.485 C42.731,83.568 43.551,83.649 44.453,83.813 L45.599,83.979 L45.682,83.896 C44.78,83.157 43.551,82.994 42.485,82.502 C42.076,82.009 42.651,81.437 42.731,80.944 C43.305,80.781 43.88,81.19 44.371,81.437 C46.419,82.83 48.469,83.732 49.944,85.78 C50.108,86.107 49.78,86.273 49.617,86.355 L46.665,87.011 L43.715,87.585 C40.437,88.322 37.076,88.731 33.633,89.059 C33.06,88.978 33.06,88.403 32.978,87.994 C32.24,85.698 32.157,83.157 31.83,80.781 C31.421,77.42 31.012,73.896 31.092,70.37 C31.174,69.223 30.846,68.24 31.012,67.175 C31.092,67.011 31.339,67.175 31.421,67.175" fill="#1A1919"/>
      <path d="M33.961,72.502 C33.88,72.831 33.715,72.994 33.47,72.994 C33.142,72.994 33.142,72.747 33.06,72.502 C33.142,72.42 33.142,72.174 33.306,72.174 C33.634,72.174 33.88,72.256 33.961,72.502" fill="#1A1919"/>
      <path d="M76.01,73.485 C76.338,73.485 76.584,73.485 76.748,73.65 C76.912,73.978 76.831,74.387 76.665,74.632 C76.42,74.88 76.01,74.88 75.845,74.632 C75.6,74.387 75.6,73.896 75.845,73.65 L75.272,74.141 C75.108,74.471 75.435,74.88 75.682,74.962 C75.928,75.125 76.255,75.125 76.502,74.88 C76.748,74.553 77.404,74.307 77.158,73.65 C76.912,73.321 76.255,73.158 76.01,73.485 M64.043,12.258 C63.223,12.422 62.321,12.422 61.584,12.832 C57.977,14.389 54.453,16.602 51.42,19.061 C49.371,20.373 47.24,21.848 45.6,23.488 L45.681,23.733 C48.223,24.143 50.601,25.208 53.142,25.701 L53.142,25.783 C54.371,26.192 55.683,26.602 57.076,26.602 C58.797,26.52 60.6,26.356 62.158,25.864 C62.403,25.783 62.486,25.701 62.486,25.455 C61.502,25.045 60.519,24.799 59.535,24.307 C59.206,24.143 58.631,24.143 58.305,23.897 C58.305,23.733 58.387,23.651 58.551,23.733 C60.19,23.979 61.993,24.061 63.715,24.225 L63.797,24.143 C62.568,23.078 60.928,22.176 59.535,21.193 L59.452,20.947 C59.452,20.865 59.535,20.782 59.699,20.782 C60.928,21.193 62.158,21.684 63.387,22.094 L64.453,22.34 L64.535,22.257 C63.633,20.618 62.076,19.553 60.765,18.241 C60.681,18.078 60.519,17.913 60.681,17.832 C61.338,17.504 62.321,17.012 62.978,17.586 C63.633,18.488 64.125,19.389 64.78,20.209 C66.092,22.34 67.486,24.635 68.878,26.684 C68.878,26.93 69.043,27.176 68.878,27.34 C66.83,27.749 64.617,27.094 62.568,27.586 C60.6,27.668 58.631,27.34 56.667,27.668 C54.29,27.258 51.83,26.52 49.535,25.701 C46.665,24.963 43.715,24.225 40.681,23.651 C39.044,23.323 37.322,23.242 35.684,22.995 L26.256,22.585 L25.683,22.75 C24.699,26.438 24.125,30.371 24.044,34.389 C23.962,36.191 24.125,38.159 24.206,39.962 L24.863,44.307 L25.11,44.469 C25.683,44.469 26.011,43.814 26.421,43.405 C28.47,41.848 30.19,40.044 32.24,38.323 L34.372,34.962 L35.109,33.078 C35.273,32.421 35.684,31.766 35.601,31.109 L35.273,31.109 C34.208,31.766 33.47,32.75 32.486,33.487 C32.322,33.568 32.077,33.487 32.077,33.323 C32.814,31.848 33.961,30.7 34.781,29.389 C34.781,29.143 34.535,29.061 34.372,29.061 C32.978,29.389 31.749,29.88 30.519,30.455 C30.355,30.535 30.274,30.371 30.274,30.208 C31.093,29.307 32.322,28.897 33.142,28.078 L33.142,27.914 C32.568,27.749 31.995,27.914 31.502,27.996 C30.027,28.241 29.126,29.143 27.814,29.716 C27.323,29.307 28.06,28.815 27.978,28.323 C28.142,27.832 27.978,27.094 28.47,26.766 L32.322,26.52 C34.372,26.438 36.338,26.766 38.387,26.684 C38.715,26.766 39.206,26.766 39.206,27.176 C38.797,28.651 38.387,30.126 37.486,31.437 C36.584,33.405 35.684,35.208 34.535,37.012 C32.978,39.307 30.519,41.11 28.715,43.078 L25.847,45.535 C23.224,47.912 20.765,50.537 18.225,52.996 C16.339,54.798 14.781,56.764 13.306,58.732 C13.142,59.059 12.486,59.387 12.733,59.88 C16.011,63.485 19.536,66.191 23.552,68.814 L27.651,70.864 C27.814,70.946 28.06,70.946 28.142,70.78 C28.224,68.484 28.47,65.946 28.306,63.65 C28.306,61.191 26.913,59.553 26.011,57.503 C25.847,57.339 25.765,56.846 25.437,56.93 L24.863,58.65 C24.863,58.732 24.699,58.896 24.618,58.732 C24.453,57.75 24.535,56.601 24.29,55.617 C24.206,55.7 24.125,55.7 24.125,55.7 C23.88,56.846 23.552,57.83 23.224,58.896 C23.142,58.978 22.896,59.141 22.815,58.896 C22.733,57.912 22.569,56.93 22.569,55.946 L22.569,54.962 C22.404,54.88 22.404,55.044 22.24,55.044 C21.667,56.518 20.929,57.75 20.437,59.225 C19.453,59.796 18.47,59.141 17.731,58.65 C17.487,58.076 17.978,57.83 18.306,57.503 C19.945,56.191 20.765,54.389 22.323,53.159 C22.978,52.666 23.306,51.764 23.962,51.273 C24.125,51.191 24.453,51.109 24.535,51.273 C25.028,52.257 25.437,53.159 25.765,54.225 C26.585,56.93 27.978,59.469 29.126,61.928 L29.617,63.567 C30.683,65.616 29.945,68.403 30.274,70.698 C30.19,73.65 30.765,76.437 30.929,79.305 L31.502,82.83 C31.749,84.798 32.077,86.683 32.568,88.567 C32.731,89.141 32.814,89.88 33.306,90.125 L35.273,90.043 L39.945,89.633 L44.781,88.814 C46.912,88.323 48.879,87.585 50.846,86.764 C51.175,86.437 51.912,86.517 51.912,85.946 C50.109,84.223 48.47,82.419 46.256,81.108 C44.126,80.125 41.994,79.389 39.618,78.978 C39.125,79.06 38.552,78.814 38.224,79.141 C39.125,79.796 39.945,80.534 40.847,81.273 L40.928,81.518 C40.847,81.6 40.847,81.764 40.601,81.764 C39.372,81.355 38.306,80.534 37.076,80.534 L37.076,80.617 C38.06,81.6 39.125,82.419 40.027,83.405 L40.027,83.732 C39.453,83.732 39.044,83.239 38.552,83.075 C37.731,82.584 36.83,82.009 35.846,81.928 C36.502,83.239 37.486,84.223 38.387,85.371 C38.552,85.617 39.044,85.946 38.797,86.355 C37.65,86.517 36.338,86.517 35.109,86.517 L34.781,86.355 C34.454,85.043 34.29,83.568 33.961,82.255 C33.715,80.534 33.388,78.896 33.224,77.175 C33.224,76.682 32.978,75.862 33.47,75.617 C35.601,76.026 37.404,76.928 39.535,77.501 L46.093,79.469 C46.748,79.796 47.485,79.88 48.06,80.207 L49.699,81.846 C51.748,83.896 54.29,86.025 56.83,87.666 C58.631,88.814 60.519,90.043 62.321,91.108 C63.96,92.01 65.519,93.158 67.322,93.568 C70.601,90.043 72.404,85.535 74.534,81.273 C74.78,80.371 75.272,79.469 75.272,78.405 C74.944,78.321 74.534,78.405 74.207,78.487 L70.354,79.06 C69.288,79.225 68.14,78.978 67.158,79.389 C65.273,80.7 63.387,81.682 61.502,82.994 L61.42,83.157 C62.403,83.405 63.55,83.321 64.617,83.405 C64.78,83.485 64.945,83.65 64.863,83.814 C64.125,84.307 63.059,84.223 62.321,84.716 C62.731,84.962 63.387,84.798 63.797,84.962 C64.535,85.125 65.519,84.878 65.929,85.535 C65.109,86.273 63.797,85.862 62.814,86.273 C63.55,86.928 64.699,86.683 65.681,86.848 C66.256,87.175 67.403,86.683 67.568,87.666 C67.239,88.239 67.076,89.059 66.338,89.305 C63.223,88.157 60.355,86.517 57.568,84.716 C57.403,84.633 57.403,84.389 57.486,84.223 L59.289,83.157 C60.765,82.009 62.814,81.191 64.37,80.042 C65.437,79.06 66.912,78.732 68.306,78.158 C69.206,78.076 70.19,77.83 71.01,77.584 L73.715,77.257 C78.142,76.437 82.731,76.11 86.748,74.553 C88.96,74.059 90.928,72.912 93.141,72.421 C93.387,72.257 93.961,72.257 93.878,71.764 C93.058,68.814 92.322,65.782 91.338,62.994 C90.355,59.88 88.797,56.93 86.829,54.471 L86.501,54.471 C85.682,55.535 84.944,56.683 84.289,57.83 C83.223,59.962 82.812,62.337 82.322,64.714 C82.24,65.373 82.075,66.191 82.24,66.766 C82.731,66.273 83.387,65.7 83.632,65.043 L83.387,65.043 C83.141,64.962 83.059,64.634 83.059,64.387 C83.387,62.667 84.125,61.273 84.862,59.716 C85.682,58.732 86.01,57.583 86.829,56.601 L87.157,56.518 C87.895,57.666 88.223,59.059 89.125,60.125 C89.535,61.517 90.355,62.832 90.765,64.223 C91.584,66.519 92.239,68.896 92.732,71.273 L92.486,71.682 C90.108,72.583 87.567,72.993 85.109,73.812 C80.6,75.125 75.928,76.191 71.256,77.012 C71.092,77.012 70.681,77.091 70.764,76.764 C71.994,75.862 73.142,74.962 74.289,73.896 C76.502,71.682 78.305,68.814 79.698,66.028 C79.862,66.028 79.943,66.028 79.943,66.109 L79.042,73.812 L79.207,74.059 C80.846,73.812 82.322,73.241 83.879,72.83 C85.682,72.667 87.322,71.93 89.125,71.437 C89.699,71.028 90.682,71.191 90.846,70.371 C90.765,67.994 90.519,65.616 89.452,63.65 L89.289,63.65 C88.715,64.634 88.387,65.946 87.895,67.092 C87.813,67.175 87.649,67.339 87.567,67.175 C87.404,65.205 87.813,63.485 87.813,61.6 L87.649,61.437 L86.01,64.714 L85.682,64.88 C85.436,64.551 85.519,63.896 85.6,63.485 C85.765,62.584 86.091,61.6 86.01,60.698 C85.026,61.846 84.452,63.241 83.879,64.634 L83.879,64.714 L84.125,64.471 C84.289,64.387 84.699,64.305 84.781,64.551 C84.452,65.7 83.715,66.766 83.469,67.994 C84.616,67.257 85.6,66.519 86.501,65.616 C86.666,65.537 86.911,65.537 86.911,65.7 C86.666,66.519 85.929,67.092 85.436,67.75 C84.944,68.568 84.206,69.141 83.961,70.043 L84.289,70.043 C85.929,69.223 87.404,68.157 89.125,67.503 C89.862,68.075 89.535,69.141 89.699,69.96 C89.699,70.289 89.289,70.453 88.96,70.534 C87.895,70.616 87.157,71.191 86.091,71.191 C84.206,71.437 82.485,72.339 80.518,72.175 C80.354,71.191 80.437,70.043 80.518,69.06 C80.6,67.75 80.846,66.601 80.928,65.373 C80.928,64.223 81.42,63.323 81.42,62.257 L82.24,57.583 C83.551,55.7 84.862,54.06 86.01,52.175 C88.387,48.568 90.108,45.125 91.911,41.191 C92.567,39.553 93.551,38.076 94.207,36.355 C93.797,36.028 93.305,35.617 92.814,35.535 C90.928,34.633 88.797,33.978 86.748,33.241 C85.026,32.585 83.223,32.257 81.42,31.848 C79.207,31.519 77.404,30.289 75.026,30.371 L75.026,30.455 C75.845,33.158 76.912,35.864 78.223,38.487 L79.453,40.207 C80.437,41.191 81.42,42.093 82.649,42.994 L82.731,42.912 C82.895,41.848 82.567,40.782 82.322,39.798 C82.322,39.634 82.567,39.553 82.649,39.716 C83.141,40.617 83.797,41.355 84.371,42.175 C84.699,41.11 84.125,39.962 84.371,38.732 L84.699,38.732 C85.354,39.798 85.519,41.191 86.256,42.175 L86.42,41.93 C86.994,40.535 86.829,38.732 86.829,37.175 C86.994,36.93 87.239,36.846 87.485,36.846 C88.632,37.093 89.699,37.584 90.436,38.405 C89.125,41.355 87.404,44.06 85.929,47.01 C85.765,47.339 85.436,47.83 85.026,47.666 L82.158,44.716 L76.584,37.912 L76.092,36.846 C74.043,30.864 72.076,24.799 68.715,19.389 C67.649,17.34 66.256,15.455 65.19,13.406 C64.78,12.996 64.863,12.258 64.043,12.258 M73.633,10.946 C75.272,11.766 76.831,12.586 78.469,13.323 C80.682,14.553 82.649,15.701 84.616,17.34 C85.682,19.881 86.994,22.257 88.059,24.799 C88.387,25.783 88.632,26.766 89.207,27.668 C89.289,27.832 89.369,28.16 89.207,28.323 L88.469,28.241 C85.436,27.422 82.075,26.93 79.371,25.701 C78.387,25.537 77.485,25.045 77.075,24.143 C76.993,23.733 76.502,23.16 76.912,22.75 C78.142,23.078 79.371,23.651 80.6,23.979 C81.748,24.553 82.978,25.208 84.289,25.455 L84.371,25.373 C82.895,23.897 81.256,22.995 79.616,21.766 C79.534,21.602 79.453,21.439 79.616,21.275 C80.272,21.111 80.6,21.766 81.256,21.93 C82.402,22.585 83.797,23.16 85.109,23.651 L85.109,23.488 C83.469,21.766 81.42,20.455 79.534,18.816 C79.453,18.651 79.288,18.488 79.453,18.488 C79.943,18.405 80.108,18.897 80.518,18.979 C82.075,19.963 83.715,20.618 85.191,21.52 C85.436,21.356 85.191,21.029 85.109,20.782 C83.632,17.75 81.01,15.864 78.305,14.144 C74.944,12.258 71.174,11.274 67.076,11.193 C66.665,11.356 66.174,11.274 65.929,11.603 C67.814,15.619 70.108,19.389 71.994,23.405 C72.732,25.045 73.47,26.356 74.207,27.996 C74.862,28.651 75.682,28.897 76.584,29.143 C78.469,29.634 80.437,30.043 82.402,30.535 C85.109,31.191 87.731,32.012 90.355,32.914 C92.977,33.896 95.355,35.044 97.896,36.273 L100.109,37.667 C100.763,39.553 101.338,41.601 101.665,43.65 C101.829,44.634 101.912,45.535 102.322,46.437 C102.731,48.076 102.731,49.88 102.403,51.6 C101.912,54.962 101.338,58.241 99.862,61.191 C99.043,62.994 98.141,64.714 97.075,66.355 C96.912,66.519 96.83,66.191 96.83,66.109 C96.502,64.223 95.682,62.584 95.107,60.782 C94.207,58.076 93.632,55.044 92.403,52.584 L91.911,51.273 C92.486,50.7 92.895,49.88 93.632,49.634 L93.878,49.798 C94.862,52.503 95.107,55.453 95.846,58.241 C96.256,57.994 96.336,57.421 96.419,56.93 C96.666,55.946 96.83,55.044 97.075,54.06 L97.239,54.06 C97.486,55.453 97.239,57.092 97.486,58.487 L97.566,58.65 C98.386,57.257 98.551,55.535 98.96,53.978 C99.043,53.814 99.206,53.898 99.371,53.978 C99.125,55.864 98.879,57.583 98.879,59.469 L98.96,59.553 C100.682,57.092 101.419,54.142 101.829,50.946 C101.829,47.994 100.599,45.371 99.862,42.666 C99.125,40.782 98.059,39.06 96.419,37.912 C96.174,37.75 95.846,37.912 95.764,38.159 C94.288,40.535 92.977,42.912 91.666,45.207 C90.519,47.421 89.042,49.389 88.14,51.846 C88.797,53.569 89.535,55.044 90.19,56.683 C91.256,58.896 91.748,61.273 92.649,63.567 C93.141,65.205 93.878,66.846 94.288,68.568 C95.355,71.682 96.009,74.962 96.747,78.241 C96.256,79.305 95.517,80.125 94.862,81.108 C92.157,85.208 88.797,88.896 84.125,90.698 C83.059,91.025 81.992,91.518 80.928,91.764 C78.797,92.173 76.831,92.83 74.699,93.158 L74.453,93.075 C75.355,90.371 76.993,88.157 78.059,85.535 L79.453,83.239 C80.026,82.994 80.272,83.568 80.6,83.732 C80.846,84.059 81.42,84.223 81.256,84.716 C80.437,86.191 79.124,87.339 78.223,88.65 L78.305,88.732 C79.698,87.83 80.928,87.012 82.24,85.946 L82.485,85.946 C82.485,86.6 81.912,86.764 81.665,87.421 L80.6,89.059 L80.846,89.059 C81.83,88.323 82.978,87.585 83.879,86.683 C83.961,86.683 84.125,86.764 84.125,86.848 C83.797,87.666 83.223,88.403 83.141,89.141 C83.632,89.141 84.125,88.978 84.535,88.814 C87.567,87.175 90.519,85.125 92.649,82.255 C94.042,80.617 94.945,78.732 95.107,76.437 C95.026,75.453 94.945,74.471 94.698,73.568 L94.288,73.485 C89.369,74.88 84.535,76.682 79.371,77.584 C78.551,77.748 77.485,77.584 77.075,78.321 C75.435,82.994 72.896,87.175 70.518,91.435 C68.798,93.648 67.486,96.108 65.19,97.992 C63.797,99.469 61.83,100.207 60.19,101.355 C59.452,101.766 58.47,101.682 57.65,101.928 C55.763,102.5 53.88,101.928 51.83,102.009 L50.437,101.682 C47.65,100.453 45.19,98.732 42.65,96.928 C41.83,96.108 41.01,95.534 40.356,94.553 L40.601,94.305 C44.126,93.321 47.731,92.83 51.256,92.01 C51.912,91.764 52.568,91.518 53.224,91.518 L53.387,91.846 C53.142,92.666 53.305,93.648 52.731,94.387 C50.683,94.469 48.142,94.142 46.093,94.632 L46.093,94.714 C47.896,95.125 49.863,95.207 51.665,95.618 C51.83,95.618 51.748,95.862 51.748,95.862 L51.502,96.028 L46.665,96.191 L46.502,96.273 C47.896,96.846 49.535,97.093 50.929,97.583 C51.011,97.666 51.092,97.912 50.929,97.992 C49.617,98.075 48.388,97.83 47.158,98.157 C46.994,98.323 47.24,98.403 47.323,98.487 C48.634,99.469 50.109,99.962 51.584,100.616 C53.633,101.109 56.174,101.846 58.305,101.026 C61.175,99.88 63.797,98.239 65.847,95.782 L66.338,94.96 C65.109,93.814 63.387,93.239 61.911,92.419 C59.125,90.782 56.502,88.978 53.715,87.257 C50.601,87.994 47.731,89.468 44.536,90.207 C39.618,91.191 34.535,91.928 29.126,91.601 C26.748,91.273 24.699,90.289 22.65,89.225 C19.863,86.928 17.404,84.142 15.519,81.191 C14.781,78.978 14.946,76.437 14.618,74.141 C14.29,72.01 14.208,69.716 14.044,67.503 C14.126,67.257 14.29,67.257 14.536,67.257 C16.339,68.323 17.814,69.633 19.536,70.698 C21.093,71.764 22.65,72.583 23.962,73.812 C23.797,74.632 22.896,75.208 22.323,75.782 L21.831,75.782 L18.47,72.503 C18.225,72.667 18.47,72.993 18.47,73.241 L20.109,77.994 C20.109,78.076 20.109,78.241 19.945,78.241 L19.617,77.91 C18.715,76.191 18.06,74.471 16.994,72.83 L16.831,72.83 C16.502,73.812 17.323,74.88 16.912,75.862 C17.323,76.271 17.568,77.012 17.487,77.748 L17.404,77.83 C16.994,77.501 16.994,76.848 16.749,76.437 L15.929,74.88 L15.765,74.88 C15.437,75.946 15.929,76.848 15.847,77.91 C16.339,80.289 16.994,82.748 18.634,84.55 C20.109,86.517 22.65,87.501 24.781,88.65 C26.748,89.468 28.879,90.207 31.256,90.043 L31.421,89.796 C30.765,87.257 30.19,84.716 29.781,82.092 C29.289,79.796 29.043,77.501 28.798,75.125 C28.47,74.307 29.126,72.83 27.814,72.583 C26.995,71.93 25.847,71.682 25.19,70.78 C24.125,70.289 23.306,69.469 22.158,69.06 C20.683,67.83 19.044,67.012 17.568,65.782 C14.7,63.323 11.748,61.191 9.454,58.076 C8.715,57.092 8.061,56.108 7.323,55.044 C7.076,52.912 7.323,50.617 7.405,48.487 C7.487,47.092 7.733,45.782 8.061,44.469 C8.47,42.994 8.798,41.437 9.208,39.962 C10.519,38.405 12.24,36.766 13.717,35.371 C15.356,34.307 16.831,32.667 18.552,31.766 C18.798,31.766 18.88,31.93 18.962,32.093 L19.372,37.996 C19.29,39.962 19.7,41.766 19.617,43.732 C19.7,44.225 19.781,44.634 19.617,45.044 C18.88,44.88 18.142,44.716 17.487,44.307 C17.404,42.175 17.731,39.962 17.731,37.832 C17.404,37.832 17.323,38.241 17.24,38.405 C16.502,40.535 15.519,42.748 14.781,44.88 C14.7,44.962 14.618,45.207 14.454,45.044 C14.536,43.732 14.7,42.503 15.028,41.273 C15.19,40.453 15.601,39.716 15.601,38.814 C15.273,38.65 15.19,39.06 14.946,39.307 C13.798,40.782 12.979,42.257 11.748,43.732 C11.667,43.814 11.503,43.732 11.42,43.732 C11.42,42.912 11.83,42.175 12.077,41.437 L13.06,38.487 C12.651,38.405 12.405,39.06 12.077,39.225 C10.601,41.601 8.798,43.896 8.142,46.766 C7.814,48.568 7.65,50.373 8.224,52.175 C8.88,54.307 9.7,56.355 11.011,58.076 C11.093,58.321 11.42,58.158 11.585,58.076 C14.372,55.7 16.831,52.912 19.453,50.208 C20.929,48.896 22.24,47.585 23.634,46.273 C24.125,45.371 23.634,44.389 23.552,43.405 C22.978,40.864 22.896,38.076 22.65,35.453 C22.815,29.553 23.715,23.815 25.683,18.57 C26.503,17.012 27.158,15.537 27.978,14.061 C30.929,12.094 34.535,10.783 38.06,9.635 C41.256,9.553 44.371,9.799 47.076,10.783 L48.306,11.028 C49.453,11.356 50.683,11.603 51.748,12.094 C51.994,12.258 51.665,12.504 51.584,12.668 C48.552,14.881 45.681,17.012 42.896,19.307 L40.601,19.061 C40.438,18.979 40.438,18.733 40.601,18.651 C41.503,17.913 42.404,17.258 43.47,16.767 C44.536,15.783 45.929,15.127 46.912,14.144 L46.912,14.061 C45.765,14.144 44.617,14.472 43.552,14.799 C43.142,14.963 42.731,15.127 42.24,15.127 C42.322,14.635 42.978,14.635 43.306,14.389 C44.044,14.061 44.617,13.897 45.19,13.323 L45.19,13.078 L44.044,13.078 C42.65,13.159 41.339,13.323 39.863,13.159 L39.945,12.996 C41.175,12.258 42.731,12.177 43.798,11.274 C43.634,10.865 43.142,11.028 42.814,10.865 C41.175,10.618 39.372,10.537 37.731,10.783 C36.011,11.356 34.208,12.012 32.65,12.914 C31.34,13.651 30.274,14.553 29.371,15.701 C28.224,17.176 26.995,18.488 26.421,20.291 C26.421,20.618 26.011,21.356 26.748,21.275 C29.536,21.52 32.322,21.602 35.109,21.93 C37.322,22.176 39.7,22.34 41.83,22.832 C42.568,22.913 43.552,23.488 44.208,22.995 C48.634,19.471 53.224,15.947 58.223,13.406 L61.665,11.521 L63.387,10.946 C65.19,10.373 66.994,9.226 69.125,9.471" fill="#1A1919"/>
      <path d="M53.88,82.338 C53.715,82.503 53.632,82.83 53.88,83.076 C54.124,83.485 54.698,83.405 55.108,83.239 C55.436,83.076 55.682,82.748 55.518,82.42 C55.108,82.01 54.289,82.01 53.88,82.338 M74.125,79.796 C73.386,81.929 72.404,83.979 71.173,85.863 C70.107,88.076 68.551,90.126 67.157,92.257 C66.748,92.666 66.339,92.173 65.928,92.01 C65.189,91.601 64.37,91.025 63.632,90.616 C61.256,89.224 58.631,88.076 56.339,86.355 C54.616,85.371 53.141,84.143 51.748,82.83 C50.928,82.01 50.026,81.6 49.37,80.699 C49.535,80.289 49.944,80.781 50.273,80.617 C52.896,80.944 55.682,81.273 58.386,81.027 C59.371,81.027 60.19,80.453 61.174,80.699 C61.174,81.108 60.681,81.19 60.355,81.519 C59.041,82.503 57.321,83.321 56.01,84.223 C55.846,84.388 55.6,84.55 55.682,84.797 L57.076,85.698 C60.19,87.585 63.305,89.469 66.666,90.781 C67.157,90.453 67.485,89.962 67.894,89.469 C68.877,87.913 69.781,86.273 70.517,84.468 L70.517,84.223 C69.698,84.388 69.043,84.961 68.223,85.208 C68.141,85.208 67.977,85.288 67.977,85.124 L68.141,84.878 C68.632,84.388 69.206,83.979 69.616,83.405 C68.96,83.157 68.467,83.813 67.814,83.732 C67.567,83.568 67.814,83.321 67.894,83.239 C68.715,82.503 69.781,82.01 70.517,81.19 L70.353,81.108 C69.043,81.354 67.814,81.846 66.501,82.01 C66.092,82.093 66.092,81.683 66.092,81.437 C66.092,80.862 66.173,80.207 66.911,80.207 C69.043,79.469 71.502,79.551 73.879,79.551" fill="#1A1919"/>
      <path d="M55.027,82.667 C55.027,82.83 54.944,83.076 54.78,83.158 C54.617,83.158 54.453,83.076 54.371,82.912 C54.289,82.667 54.453,82.503 54.617,82.419 C54.863,82.339 54.944,82.503 55.027,82.667" fill="#1A1919"/>
      <path d="M32.486,93.976 C32.24,94.223 31.994,94.633 32.076,95.044 C32.322,95.289 32.486,95.617 32.813,95.699 C33.142,95.699 33.47,95.617 33.633,95.453 C33.797,95.125 34.125,94.633 33.797,94.305 C33.47,94.058 32.978,93.649 32.486,93.976 M57.567,91.274 C59.862,92.503 62.158,93.732 64.207,95.289 C64.37,95.699 64.043,96.028 63.716,96.273 C60.846,98.813 56.912,100.862 52.568,100.29 C52.404,99.715 52.322,98.732 52.814,98.24 L57.567,98.158 C58.386,97.992 59.207,97.829 59.945,97.501 L59.78,97.339 C57.732,96.929 55.683,96.683 53.551,96.354 C53.387,96.273 53.551,96.028 53.715,96.028 C55.437,95.782 57.322,95.942 59.041,95.617 L58.797,95.372 C57.403,94.88 56.01,94.633 54.534,94.223 C54.371,94.142 54.289,93.895 54.371,93.732 C55.027,93.322 55.763,93.815 56.42,93.567 C57.076,93.567 57.977,93.732 58.469,93.322 L58.059,92.912 C56.42,91.929 54.944,90.699 53.059,90.207 C51.257,90.207 49.699,90.945 47.978,91.355 C45.19,92.174 42.322,92.749 39.453,93.239 C38.715,93.485 37.896,93.485 37.404,93.895 C38.06,94.961 39.372,95.942 40.438,96.764 C41.912,97.992 43.552,99.551 45.19,100.781 L45.19,101.11 C42.158,100.208 39.207,99.222 36.338,97.992 L31.502,95.699 C30.027,94.633 28.47,93.815 26.912,92.666 C26.748,92.503 27.076,92.339 27.158,92.339 L28.633,92.503 C30.518,92.585 32.486,92.666 34.289,92.666 C37.322,92.666 40.109,92.092 42.814,91.519 L44.044,91.436 C47.24,90.616 50.354,89.796 53.387,88.732 C54.944,89.469 56.256,90.453 57.567,91.274" fill="#1A1919"/>
      <path d="M33.388,94.714 C33.388,94.96 33.142,95.043 32.978,95.125 C32.649,95.125 32.649,94.796 32.731,94.552 C32.978,94.222 33.388,94.469 33.388,94.714" fill="#1A1919"/>
      <path d="M70.108,97.175 C69.944,97.501 69.698,97.912 69.944,98.322 C70.108,98.65 70.517,98.896 70.926,98.813 C71.337,98.566 71.83,98.239 71.666,97.583 C71.584,96.846 70.601,96.683 70.108,97.175 M93.797,75.7 C92.977,78.486 91.502,80.944 89.779,83.157 C88.387,84.468 87.157,86.191 85.436,87.421 L85.354,87.338 L85.436,87.011 C86.42,85.78 87.485,84.716 87.977,83.238 C86.829,83.978 85.682,85.288 84.371,85.945 C84.042,85.698 84.371,85.288 84.535,85.125 C85.682,84.142 86.42,82.83 87.404,81.766 L87.567,81.272 C86.501,81.766 85.682,82.502 84.616,83.157 L82.402,84.633 C82.24,84.633 82.24,84.468 82.24,84.307 L82.567,83.895 C84.125,82.255 86.01,80.782 87.322,78.814 C87.322,78.732 87.404,78.568 87.322,78.568 C84.535,79.225 81.748,79.96 79.124,80.944 L78.715,81.354 C77.568,83.978 76.42,86.517 75.191,89.059 C74.534,90.043 74.043,91.273 73.305,92.257 C72.649,93.239 72.076,94.059 71.912,95.289 L72.156,95.289 C75.682,94.469 79.207,93.568 82.649,92.584 L82.812,92.584 L82.812,92.912 L80.437,94.552 C78.387,96.191 75.928,97.257 73.552,98.239 C70.764,99.961 67.239,100.207 63.96,101.026 C63.878,101.026 63.715,100.944 63.715,100.862 L63.878,100.536 C65.437,98.896 66.912,97.419 68.387,95.782 C70.517,93.239 72.486,90.125 74.207,87.338 C75.435,84.961 76.502,82.584 77.732,80.207 C77.895,79.796 78.142,79.305 78.633,79.141 C81.339,78.321 84.125,77.42 86.829,76.681 C88.96,76.026 91.092,75.372 93.305,75.041 C93.797,74.879 93.715,75.372 93.797,75.7" fill="#1A1919"/>
      <path d="M71.01,97.748 C71.01,97.912 70.846,97.993 70.682,98.076 C70.354,98.076 70.272,97.748 70.354,97.501 C70.601,97.256 70.927,97.501 71.01,97.748" fill="#1A1919"/>
    </g>
  </g>
</svg>
